<svg id="Capa_1" enable-background="new 0 0 512.105 512.105" height="512" viewBox="0 0 512.105 512.105" width="512" xmlns="http://www.w3.org/2000/svg"><g><g fill="#fcd1e8"><path d="m66.705 46.932-14.95 14.95c-2.734 2.734-7.166 2.734-9.899 0l-14.95-14.95c-2.734-2.734-2.734-7.166 0-9.899l14.95-14.95c2.734-2.734 7.166-2.734 9.899 0l14.95 14.95c2.733 2.733 2.733 7.166 0 9.899z"/><path d="m510.055 216.622-14.95 14.95c-2.734 2.734-7.166 2.734-9.9 0l-14.95-14.95c-2.734-2.734-2.734-7.166 0-9.899l14.95-14.95c2.734-2.734 7.166-2.734 9.9 0l14.95 14.95c2.733 2.733 2.733 7.165 0 9.899z"/><path d="m159.242 370.701-14.95 14.95c-2.734 2.734-7.166 2.734-9.9 0l-14.95-14.95c-2.734-2.734-2.734-7.166 0-9.9l14.95-14.95c2.734-2.734 7.166-2.734 9.9 0l14.95 14.95c2.734 2.735 2.734 7.167 0 9.9z"/></g><path d="m380.823 209.42 6.764 13.706c.857 1.737 2.515 2.942 4.432 3.22l15.126 2.198c4.828.702 6.756 6.635 3.262 10.04l-10.945 10.669c-1.387 1.352-2.02 3.301-1.693 5.21l2.584 15.065c.825 4.809-4.222 8.476-8.541 6.205l-13.529-7.113c-1.715-.902-3.764-.902-5.478 0l-13.529 7.113c-4.318 2.27-9.366-1.397-8.541-6.205l2.584-15.065c.328-1.91-.306-3.858-1.693-5.21l-10.945-10.669c-3.494-3.406-1.566-9.339 3.262-10.04l15.126-2.198c1.917-.279 3.575-1.483 4.432-3.22l6.764-13.706c2.16-4.375 8.398-4.375 10.558 0z" fill="#fee97d"/><path d="m243.099 412.626 6.764 13.706c.857 1.737 2.515 2.942 4.432 3.22l15.126 2.198c4.828.702 6.756 6.635 3.262 10.04l-10.945 10.669c-1.387 1.352-2.02 3.301-1.693 5.21l2.584 15.065c.825 4.809-4.223 8.476-8.541 6.205l-13.529-7.113c-1.715-.902-3.764-.902-5.478 0l-13.529 7.113c-4.318 2.27-9.366-1.397-8.541-6.205l2.584-15.065c.328-1.91-.306-3.858-1.693-5.21l-10.945-10.669c-3.494-3.406-1.566-9.339 3.262-10.04l15.126-2.198c1.917-.279 3.575-1.483 4.432-3.22l6.764-13.706c2.16-4.375 8.399-4.375 10.558 0z" fill="#fee97d"/><path d="m149 209.42 6.764 13.706c.857 1.737 2.515 2.942 4.432 3.22l15.126 2.198c4.828.702 6.756 6.635 3.262 10.04l-10.945 10.669c-1.387 1.352-2.02 3.301-1.693 5.21l2.584 15.065c.825 4.809-4.222 8.476-8.541 6.205l-13.529-7.113c-1.715-.902-3.764-.902-5.478 0l-13.529 7.113c-4.318 2.27-9.366-1.397-8.541-6.205l2.584-15.065c.328-1.91-.306-3.858-1.693-5.21l-10.945-10.669c-3.494-3.406-1.566-9.339 3.262-10.04l15.126-2.198c1.917-.279 3.575-1.483 4.432-3.22l6.764-13.706c2.16-4.375 8.398-4.375 10.558 0z" fill="#fee97d"/><path d="m249.611 331.322c-4.497 0-8.994-1.715-12.425-5.147-6.861-6.863-6.861-17.988.001-24.849 4.202-4.202 6.516-9.789 6.516-15.732s-2.314-11.53-6.516-15.732c-10.84-10.84-16.809-25.252-16.809-40.581 0-15.33 5.97-29.742 16.809-40.581 8.674-8.675 8.674-22.79-.001-31.464-10.839-10.839-16.809-25.251-16.809-40.581 0-15.329 5.969-29.741 16.809-40.581 4.202-4.202 6.517-9.789 6.517-15.732s-2.314-11.53-6.516-15.732c-6.862-6.861-6.862-17.986-.001-24.849 6.863-6.861 17.987-6.864 24.85 0 10.84 10.839 16.809 25.251 16.809 40.581s-5.97 29.742-16.809 40.581c-4.202 4.203-6.516 9.79-6.516 15.732 0 5.943 2.314 11.53 6.516 15.732 22.376 22.377 22.376 58.786.001 81.162-4.202 4.202-6.517 9.789-6.517 15.732 0 5.942 2.314 11.529 6.517 15.732 10.839 10.839 16.809 25.251 16.809 40.581s-5.97 29.742-16.809 40.581c-3.433 3.431-7.93 5.147-12.426 5.147z" fill="#8ac9fe"/><path d="m257.906 301.325c-6.86 6.86-6.86 17.989 0 24.849.653.653 1.337 1.244 2.062 1.772-3.078 2.249-6.725 3.378-10.362 3.378-4.497 0-8.994-1.72-12.424-5.15-6.86-6.86-6.86-17.989 0-24.849 4.207-4.197 6.518-9.792 6.518-15.73 0-5.948-2.311-11.533-6.518-15.73-10.839-10.839-16.808-25.253-16.808-40.579 0-15.336 5.969-29.75 16.808-40.589 8.673-8.673 8.673-22.787 0-31.46-10.839-10.839-16.808-25.253-16.808-40.579 0-15.336 5.969-29.74 16.808-40.579 4.207-4.207 6.518-9.792 6.518-15.74 0-5.938-2.311-11.523-6.518-15.73-6.86-6.86-6.86-17.989 0-24.849 6.217-6.207 15.916-6.798 22.787-1.772-.715.528-1.409 1.119-2.062 1.772-6.86 6.86-6.86 17.989 0 24.849 4.207 4.207 6.518 9.792 6.518 15.73 0 5.948-2.311 11.533-6.518 15.74-10.839 10.839-16.808 25.242-16.808 40.579 0 15.326 5.969 29.74 16.808 40.579 8.673 8.673 8.673 22.786 0 31.46-10.839 10.839-16.808 25.253-16.808 40.589 0 15.326 5.969 29.74 16.808 40.579 4.207 4.197 6.518 9.782 6.518 15.73-.001 5.938-2.312 11.534-6.519 15.73z" fill="#60b7ff"/><path d="m46.805 343.322c-4.497 0-8.993-1.715-12.424-5.147-6.862-6.861-6.862-17.986-.001-24.849 8.675-8.675 8.675-22.79 0-31.464-10.839-10.839-16.809-25.251-16.809-40.581 0-15.329 5.969-29.741 16.809-40.581 4.202-4.202 6.517-9.789 6.517-15.732s-2.314-11.53-6.516-15.732c-6.862-6.861-6.862-17.986-.001-24.849 6.863-6.861 17.987-6.864 24.85 0 10.84 10.839 16.809 25.251 16.809 40.581s-5.97 29.742-16.809 40.581c-4.202 4.203-6.516 9.79-6.516 15.732 0 5.943 2.314 11.53 6.516 15.732 22.376 22.377 22.376 58.786.001 81.162-3.432 3.431-7.929 5.147-12.426 5.147z" fill="#97da7b"/><path d="m55.107 313.325c-6.86 6.86-6.86 17.989 0 24.849.653.643 1.337 1.233 2.062 1.762-3.067 2.259-6.715 3.388-10.362 3.388-4.497 0-8.994-1.72-12.424-5.15-6.86-6.86-6.86-17.989 0-24.849 8.673-8.673 8.673-22.787 0-31.46-10.839-10.839-16.808-25.253-16.808-40.589 0-15.326 5.969-29.74 16.808-40.579 4.197-4.197 6.518-9.782 6.518-15.73 0-5.938-2.321-11.533-6.518-15.73-6.86-6.86-6.86-17.989 0-24.849 6.207-6.207 15.906-6.798 22.787-1.772-.715.528-1.409 1.119-2.062 1.772-6.86 6.86-6.86 17.989 0 24.849 4.197 4.197 6.518 9.792 6.518 15.73 0 5.948-2.321 11.533-6.518 15.73-10.839 10.839-16.808 25.253-16.808 40.579 0 15.336 5.969 29.75 16.808 40.589 8.672 8.673 8.672 22.786-.001 31.46z" fill="#80d261"/><path d="m417.119 172.969c-4.497 0-8.994-1.715-12.425-5.147-10.84-10.84-16.809-25.252-16.809-40.581 0-15.33 5.97-29.742 16.809-40.581 8.674-8.675 8.674-22.79-.001-31.464-6.861-6.863-6.861-17.988.001-24.849 6.863-6.861 17.988-6.864 24.85 0 22.376 22.377 22.376 58.786 0 81.162-4.202 4.202-6.517 9.789-6.517 15.732 0 5.942 2.314 11.529 6.517 15.732 6.861 6.863 6.861 17.988-.001 24.849-3.43 3.431-7.927 5.147-12.424 5.147z" fill="#f07281"/><path d="m425.423 167.818c.653.653 1.337 1.243 2.062 1.772-3.078 2.259-6.725 3.378-10.362 3.378-4.497 0-8.994-1.71-12.424-5.15-10.839-10.839-16.808-25.243-16.808-40.579 0-15.326 5.969-29.74 16.808-40.579 8.673-8.673 8.673-22.787 0-31.46-6.87-6.87-6.87-17.989 0-24.849 6.207-6.217 15.906-6.808 22.787-1.772-.715.528-1.409 1.119-2.062 1.772-6.87 6.86-6.87 17.979 0 24.849 8.673 8.673 8.673 22.787 0 31.46-10.839 10.839-16.808 25.253-16.808 40.579-.001 15.336 5.968 29.74 16.807 40.579z" fill="#eb5569"/><path d="m446.34 439.636c-4.497 0-8.994-1.715-12.425-5.147-10.84-10.84-16.809-25.252-16.809-40.581 0-15.33 5.97-29.742 16.809-40.581 8.674-8.675 8.674-22.79-.001-31.464-6.861-6.863-6.861-17.988.001-24.849 6.863-6.861 17.988-6.864 24.85 0 22.376 22.377 22.376 58.786 0 81.162-4.202 4.202-6.517 9.789-6.517 15.732 0 5.942 2.314 11.529 6.517 15.732 6.861 6.863 6.861 17.988-.001 24.849-3.431 3.431-7.928 5.147-12.424 5.147z" fill="#fcd1e8"/><path d="m454.634 434.491c.653.653 1.347 1.243 2.072 1.772-3.078 2.249-6.725 3.378-10.362 3.378-4.497 0-8.994-1.72-12.435-5.15-10.839-10.839-16.808-25.253-16.808-40.579 0-15.336 5.969-29.75 16.818-40.589 8.673-8.673 8.673-22.787-.01-31.46-6.86-6.86-6.86-17.989.01-24.849 6.207-6.207 15.906-6.798 22.787-1.772-.715.528-1.409 1.119-2.062 1.772-6.87 6.86-6.87 17.989-.01 24.849 8.684 8.673 8.684 22.787.01 31.46-10.849 10.839-16.818 25.253-16.818 40.589 0 15.326 5.969 29.74 16.808 40.579z" fill="#f6c2e0"/><circle cx="139.342" cy="114.95" fill="#f07281" r="17.571"/><circle cx="339.178" cy="365.752" fill="#f07281" r="17.571"/><circle cx="17.571" cy="444.487" fill="#8ac9fe" r="17.571"/><circle cx="341.413" cy="73.18" fill="#97da7b" r="17.571"/><circle cx="383.59" cy="479.917" fill="#97da7b" r="17.571"/></g></svg>